# xmcd
#
# Track frame offsets: 
#        150
#        14247
#        27897
#        42592
#        51472
#        58575
#        72317
#        82187
#        93345
#        108775
#
# Disc length: 2105 seconds
#
# Revision: 5
# Processed by: cddbd v1.5.2PL0 Copyright (c) Steve Scherf et al.
# Submitted via: ExactAudioCopyFreeDBPlugin 1.0
#
DISCID=8c08370a
DTITLE=The Doors - Strange Days
DYEAR=1967
DGENRE=Rock
TTITLE0=Strange Days
TTITLE1=You're Lost Little Girl
TTITLE2=Love Me Two Times
TTITLE3=Unhappy Girl
TTITLE4=Horse Latitudes
TTITLE5=Moonlight Drive
TTITLE6=People Are Strange
TTITLE7=My Eyes Have Seen You
TTITLE8=I Can't See Your Face in My Mind
TTITLE9=When the Music's Over
EXTD=Produced by Paul A. Rothschild\n YEAR: 1967
EXTT0=
EXTT1=
EXTT2=
EXTT3=
EXTT4=
EXTT5=
EXTT6=
EXTT7=
EXTT8=
EXTT9=
PLAYORDER=
